<svg xmlns="http://www.w3.org/2000/svg" viewBox="0 0 640 480" role="img" aria-label="Diseased leaf">
  <defs>
    <linearGradient id="g" x1="0" y1="0" x2="1" y2="1">
      <stop offset="0" stop-color="#2C5F2D" />
      <stop offset="1" stop-color="#5f8f61" />
    </linearGradient>
    <filter id="noise">
      <feTurbulence baseFrequency="0.9" numOctaves="2" type="fractalNoise"/>
      <feColorMatrix type="saturate" values="0.2"/>
      <feBlend mode="multiply"/>
    </filter>
  </defs>
  <rect width="100%" height="100%" fill="#f7f7f7"/>
  <g transform="translate(120,40)">
    <path d="M200 0C120 40 60 120 40 200c-20 80 10 160 160 200 120-40 180-120 160-200S280 40 200 0z" fill="url(#g)"/>
    <path d="M200 20c-40 50-80 100-120 160 40-20 80-30 120-30 40 0 80 10 120 30-40-60-80-110-120-160z" fill="#1b3e1c" fill-opacity=".2"/>
    <g stroke="#7a2b2b" stroke-width="6" stroke-linecap="round">
      <circle cx="160" cy="180" r="10" fill="#c0392b" />
      <circle cx="230" cy="140" r="8" fill="#c0392b" />
      <circle cx="260" cy="210" r="12" fill="#c0392b" />
      <circle cx="190" cy="250" r="7" fill="#c0392b" />
    </g>
  </g>
</svg>
